<?xml version="1.0" encoding="UTF-8"?>
<svg id="Layer_1" data-name="Layer 1" xmlns="http://www.w3.org/2000/svg" viewBox="0 0 614.96 495">
  <defs>
    <style>
      .cls-1 {
        fill: #00a1bf;
        stroke: #000;
        stroke-miterlimit: 10;
        stroke-width: 15px;
      }
    </style>
  </defs>
  <path class="cls-1" d="m82.48,52.5c0-24.85,20.15-45,45-45s45,20.15,45,45-20.15,45-45,45-45-20.15-45-45Zm37.5,285v120c0,16.59-13.41,30-30,30s-30-13.41-30-30v-145.12c-7.59,8.63-19.78,12.38-31.41,8.81-15.84-4.97-24.66-21.75-19.69-37.59l28.97-92.91c11.72-37.59,46.5-63.19,85.87-63.19h7.5c39.38,0,74.16,25.59,85.88,63.19l28.97,92.91c4.97,15.84-3.84,32.62-19.69,37.59-11.62,3.66-23.81-.19-31.41-8.81v145.12c0,16.59-13.41,30-30,30s-30-13.41-30-30v-120h-15ZM307.48,7.5c12.47,0,22.5,10.03,22.5,22.5v435c0,12.47-10.03,22.5-22.5,22.5s-22.5-10.03-22.5-22.5V30c0-12.47,10.03-22.5,22.5-22.5Zm135,45c0-24.85,20.15-45,45-45s45,20.15,45,45-20.15,45-45,45-45-20.15-45-45Zm-22.5,405v-90h-16.69c-10.22,0-17.44-10.03-14.25-19.78l8.44-25.22c-3,0-6-.47-8.91-1.41-15.84-4.97-24.66-21.75-19.69-37.59l27.84-89.25c12.37-39.66,49.12-66.75,90.75-66.75s78.37,27.09,90.75,66.75l27.84,89.25c4.97,15.84-3.84,32.62-19.69,37.59-3,.94-6,1.41-8.91,1.41l8.44,25.22c3.28,9.75-4.03,19.78-14.25,19.78h-16.69v90c0,16.59-13.41,30-30,30s-30-13.41-30-30v-90h-15v90c0,16.59-13.41,30-30,30s-30-13.41-30-30Z"/>
</svg>