<?xml version="1.0" encoding="UTF-8"?>
<svg id="Layer_1" data-name="Layer 1" xmlns="http://www.w3.org/2000/svg" viewBox="0 0 436.75 497">
  <defs>
    <style>
      .cls-1 {
        fill: #ee2448;
        stroke: #000;
        stroke-miterlimit: 10;
        stroke-width: 15px;
      }
    </style>
  </defs>
  <path class="cls-1" d="m399.12,7.5c-15.06,0-120.5,30.12-120.5,165.69v105.44c0,33.23,27.02,60.25,60.25,60.25h30.12v120.5c0,16.66,13.46,30.12,30.12,30.12s30.12-13.46,30.12-30.12V37.62c0-16.66-13.46-30.12-30.12-30.12ZM67.75,22.56c0-7.72-5.74-14.12-13.46-14.97-7.72-.85-14.59,4.24-16.29,11.67L9.48,147.58c-1.32,5.93-1.98,11.96-1.98,17.98,0,43.21,33.04,78.7,75.31,82.56v211.25c0,16.66,13.46,30.12,30.12,30.12s30.12-13.46,30.12-30.12v-211.25c42.27-3.86,75.31-39.35,75.31-82.56,0-6.02-.66-12.05-1.98-17.98l-28.52-128.31c-1.69-7.53-8.76-12.52-16.38-11.67s-13.37,7.25-13.37,14.97v126.34c0,5.08-4.14,9.23-9.23,9.23-4.8,0-8.76-3.67-9.23-8.47l-11.77-128.41c-.66-7.81-7.15-13.74-14.97-13.74s-14.31,5.93-14.97,13.74l-11.67,128.41c-.47,4.8-4.42,8.47-9.23,8.47-5.08,0-9.23-4.14-9.23-9.23V22.56h-.09Z"/>
</svg>